#!OML:ASF X:\für Bonn\!DataBase\2005_08_12_Daniel\c3d\Daniel.ASF
:FULLY-SPECIFIED
:DEGREES
250
root 6.08907 17.0806 -1.70591 -741.981 -74.4755 735.554
lowerback 7.5265 -8.37439 6.60871
upperback 2.40594 -10.6918 0.790005
thorax -2.69184 -5.37238 -1.67504
lowerneck 10.9607 15.8784 3.14946
upperneck 4.50621 21.4169 -11.3754
head 1.23085 10.7805 -4.05047
rclavicle 5.74488e-014 -3.02153e-014
rhumerus -46.4171 -11.5528 -75.6842
rradius 29.3311
rwrist 6.20168
rhand -17.0172 8.42004
rfingers 7.12502
rthumb 9.21874 -21.3584
lclavicle 5.74488e-014 -3.02153e-014
lhumerus -26.0307 7.49108 87.0412
lradius 126.053
lwrist 203.229
lhand -8.99356 19.7365
lfingers 7.12502
lthumb 16.9526 49.0167
rfemur -19.0865 7.44706 13.1641
rtibia 43.2003
rfoot -16.6646 10.5382
rtoes -5.43282
lfemur 2.23464 -3.59047 -15.9809
ltibia 61.422
lfoot 1.12974 -8.57561
ltoes -21.5501
251
root 6.14957 17.0748 -1.68367 -741.452 -74.3088 735.131
lowerback 7.36786 -8.41644 6.58374
upperback 2.32265 -10.7559 0.862095
thorax -2.67898 -5.40468 -1.59764
lowerneck 10.8442 15.7852 3.27262
upperneck 4.50752 21.3164 -11.4774
head 1.26312 10.7299 -4.08435
rclavicle -8.64713e-015 -1.74931e-014
rhumerus -46.0649 -10.963 -76.6093
rradius 30.0346
rwrist 5.62371
rhand -17.1355 8.71978
rfingers 7.12502
rthumb 9.10459 -21.0637
lclavicle -8.64713e-015 -1.74931e-014
lhumerus -26.645 7.21432 87.1314
lradius 125.682
lwrist 202.952
lhand -8.67488 19.959
lfingers 7.12502
lthumb 17.2594 49.2126
rfemur -19.4512 7.25169 13.0454
rtibia 43.2449
rfoot -16.396 10.3922
rtoes -5.59819
lfemur 2.6776 -4.09496 -16.0731
ltibia 60.6807
lfoot 0.938896 -8.40012
ltoes -21.0261
252
root 6.21095 17.0692 -1.66149 -740.911 -74.1087 734.699
lowerback 7.18939 -8.46495 6.53822
upperback 2.25873 -10.8331 0.920575
thorax -2.63475 -5.44272 -1.527
lowerneck 10.7022 15.6822 3.44636
upperneck 4.48488 21.2089 -11.6054
head 1.29901 10.6772 -4.13046
rclavicle -5.83433e-014 -7.95139e-015
rhumerus -45.6732 -10.3614 -77.5549
rradius 30.704
rwrist 5.04652
rhand -17.3199 9.01847
rfingers 7.12502
rthumb 8.92668 -20.7727
lclavicle -5.83433e-014 -7.95139e-015
lhumerus -27.224 6.95292 87.1419
lradius 125.374
lwrist 202.66
lhand -8.45386 20.1916
lfingers 7.12502
lthumb 17.4721 49.4264
rfemur -19.8107 7.09551 12.9138
rtibia 43.2985
rfoot -16.1431 10.1893
rtoes -5.70882
lfemur 3.04239 -4.59048 -16.1551
ltibia 59.9678
lfoot 0.740176 -8.32795
ltoes -20.5382
253
root 6.27335 17.062 -1.63976 -740.412 -73.8773 734.289
lowerback 7.02145 -8.51382 6.4338
upperback 2.20989 -10.915 0.996382
thorax -2.56657 -5.48246 -1.40868
lowerneck 10.539 15.5823 3.61414
upperneck 4.47122 21.1065 -11.767
head 1.34387 10.6258 -4.18297
rclavicle -1.85864e-014 0
rhumerus -45.2623 -9.73961 -78.4448
rradius 31.3726
rwrist 4.48364
rhand -17.5375 9.29341
rfingers 7.12502
rthumb 8.71663 -20.5066
lclavicle -1.85864e-014 0
lhumerus -27.7742 6.72133 87.1483
lradius 125.138
lwrist 202.374
lhand -8.31994 20.3507
lfingers 7.12502
lthumb 17.601 49.574
rfemur -20.1524 6.94802 12.7647
rtibia 43.3642
rfoot -15.9229 9.97976
rtoes -5.89107
lfemur 3.36442 -5.07214 -16.2169
ltibia 59.2852
lfoot 0.397062 -8.41769
ltoes -20.5883
254
root 6.33794 17.0541 -1.61826 -739.812 -73.6175 733.771
lowerback 6.87707 -8.57028 6.34911
upperback 2.14816 -11.0026 1.06641
thorax -2.52935 -5.52578 -1.301
lowerneck 10.379 15.48 3.83621
upperneck 4.49043 21.0089 -11.9058
head 1.40137 10.5766 -4.23463
rclavicle -4.37326e-015 -1.74931e-014
rhumerus -44.9203 -9.13822 -79.3045
rradius 32.0698
rwrist 3.97758
rhand -17.7706 9.53458
rfingers 7.12502
rthumb 8.49176 -20.2747
lclavicle -4.37326e-015 -1.74931e-014
lhumerus -28.354 6.51629 87.1043
lradius 124.934
lwrist 202.124
lhand -8.31984 20.4201
lfingers 7.12502
lthumb 17.6011 49.6434
rfemur -20.4861 6.84156 12.6419
rtibia 43.434
rfoot -15.7263 9.69943
rtoes -5.96329
lfemur 3.62677 -5.58557 -16.2374
ltibia 58.6273
lfoot -0.0910489 -8.69294
ltoes -21.1318
